<svg width="54" height="54" viewBox="0 0 54 54" fill="none" xmlns="http://www.w3.org/2000/svg">
<path fill-rule="evenodd" clip-rule="evenodd" d="M0.370627 27.0006C0.13829 28.9928 0.0145648 30.9961 0 33.0017C0 47.0051 7.7674 54.0045 23.3022 54C41.0555 54 51.1649 44.9994 53.6305 26.9983C53.8599 25.0066 53.9832 23.0042 54 20.9994C54.0015 7.00506 46.2349 0.00525033 30.7001 0C12.9453 0 2.83584 9.00056 0.371753 27.0017H0.370627V27.0006Z" fill="#3D4148"/>
<g clip-path="url(#clip0_14182_3534)">
<path d="M27 9L10 13.7699V23.6665C10 28.8561 11.6187 33.8201 14.681 38.0198C17.6774 42.1297 21.8075 45.19 26.6242 46.8701L27 47.0013L27.3758 46.8701C32.1925 45.19 36.3226 42.1297 39.319 38.0198C42.3813 33.8201 43.9993 28.8568 43.9993 23.6665V13.7699L27 9ZM37.1115 25.7262C36.7622 28.753 35.6435 31.6219 33.8233 34.118C32.052 36.5485 29.7 38.5037 27 39.7963C24.3 38.503 21.948 36.5478 20.1767 34.118C18.3565 31.6219 17.2378 28.753 16.8885 25.7262L16.7704 23.445V18.8149L27.0007 15.9447L37.2309 18.8149V23.445L37.1129 25.7268L37.1115 25.7262ZM12.2564 23.6658V15.4514L25.8718 11.6313V13.9466L14.5134 17.1335V23.6665C14.5134 27.9177 15.8376 31.9814 18.3443 35.4193C20.3035 38.1061 22.895 40.2769 25.8711 41.7307V44.1846C17.6652 40.6531 12.2564 32.5999 12.2564 23.6658ZM41.743 23.6658C41.743 32.5992 36.3341 40.6531 28.1282 44.184V41.7301C31.1043 40.2762 33.6958 38.1054 35.655 35.4186C38.1617 31.9807 39.4859 27.917 39.4859 23.6658V17.1328L28.1275 13.946V11.6306L41.7423 15.4507V23.6652L41.743 23.6658Z" fill="white"/>
</g>
<defs>
<clipPath id="clip0_14182_3534">
<rect width="34" height="38" fill="white" transform="translate(10 9)"/>
</clipPath>
</defs>
</svg>
