<svg width="54" height="54" viewBox="0 0 54 54" fill="none" xmlns="http://www.w3.org/2000/svg">
<path fill-rule="evenodd" clip-rule="evenodd" d="M0.370627 27.0006C0.13829 28.9928 0.0145648 30.9961 0 33.0017C0 47.0051 7.7674 54.0045 23.3022 54C41.0555 54 51.1649 44.9994 53.6305 26.9983C53.8599 25.0066 53.9832 23.0042 54 20.9994C54.0015 7.00506 46.2349 0.00525033 30.7001 0C12.9453 0 2.83584 9.00056 0.371753 27.0017H0.370627V27.0006Z" fill="#C2BB00"/>
<g clip-path="url(#clip0_14182_3536)">
<path fill-rule="evenodd" clip-rule="evenodd" d="M39.319 38.0186C36.3226 42.1284 32.1925 45.1887 27.3758 46.8688L27 47L26.6242 46.8688C21.8075 45.1887 17.6774 42.1291 14.681 38.0186C11.6187 33.819 10 28.8558 10 23.6656V13.7698L27 9L44 13.7698V23.6663C44 28.8558 42.3813 33.8197 39.3197 38.0186H39.319ZM26.9993 39.7964C29.6994 38.5032 32.0514 36.548 33.8227 34.1182C35.6428 31.6222 36.7615 28.7534 37.1109 25.7265H16.8885C17.2372 28.7534 18.3565 31.6215 20.1767 34.1182C21.948 36.5487 24.2993 38.5032 26.9993 39.7964ZM25.8711 11.6312L12.2564 15.4513V23.6663C12.2564 32.5995 17.6652 40.6532 25.8711 44.184V41.7302C22.895 40.2763 20.3035 38.1056 18.3443 35.4188C15.8376 31.981 14.5134 27.9173 14.5134 23.6663V17.1333L25.8718 13.9465V11.6319L25.8711 11.6312ZM16.7697 18.8148V23.4447H37.2296V18.8148L26.9993 15.9446L16.7691 18.8148H16.7697ZM41.743 15.4513L28.1282 11.6312V13.9459L39.4866 17.1327V23.6656C39.4866 27.9167 38.1617 31.9803 35.6557 35.4181C33.6965 38.1049 31.105 40.2757 28.1289 41.7295V44.1833C36.3348 40.6525 41.7436 32.5995 41.7436 23.6656V15.4506L41.743 15.4513Z" fill="white"/>
</g>
<defs>
<clipPath id="clip0_14182_3536">
<rect width="34" height="38" fill="white" transform="translate(10 9)"/>
</clipPath>
</defs>
</svg>
