<svg width="54" height="54" viewBox="0 0 54 54" fill="none" xmlns="http://www.w3.org/2000/svg">
<path fill-rule="evenodd" clip-rule="evenodd" d="M0.370627 27.0006C0.13829 28.9928 0.0145648 30.9961 0 33.0017C0 47.0051 7.7674 54.0045 23.3022 54C41.0555 54 51.1649 44.9994 53.6305 26.9983C53.8599 25.0066 53.9832 23.0042 54 20.9994C54.0015 7.00506 46.2349 0.00525033 30.7001 0C12.9453 0 2.83584 9.00056 0.371753 27.0017H0.370627V27.0006Z" fill="#CACACA"/>
<g clip-path="url(#clip0_14182_3533)">
<path d="M27 9L10 13.7698V23.6663C10 28.8558 11.6187 33.819 14.681 38.0186C17.6774 42.1291 21.8075 45.1887 26.6242 46.8688L27 47L27.3765 46.8688C32.1931 45.1887 36.3232 42.1284 39.3197 38.0186C42.382 33.819 44 28.8558 44 23.6656V13.7698L27 9ZM25.8718 13.9465V44.184C17.6652 40.6525 12.2564 32.5995 12.2564 23.6656V15.4513L25.8718 11.6312V13.9465ZM41.7436 23.6663C41.7436 32.5995 36.3348 40.6532 28.1289 44.184V11.6312L41.7436 15.4513V23.6663Z" fill="white"/>
</g>
<defs>
<clipPath id="clip0_14182_3533">
<rect width="34" height="38" fill="white" transform="translate(10 9)"/>
</clipPath>
</defs>
</svg>
