<svg width="75" height="74" viewBox="0 0 75 74" fill="none" xmlns="http://www.w3.org/2000/svg">
<g clip-path="url(#clip0_11309_5864)">
<path d="M64.6744 68.6831C58.0645 77.7148 48.954 84.44 38.329 88.132L37.5 88.4203L36.671 88.132C26.046 84.44 16.9355 77.7162 10.3256 68.6831C3.57057 59.4544 0 48.5473 0 37.1416V15.3951L37.5 4.91309L75 15.3951V37.1416C75 48.5458 71.4294 59.4544 64.6759 68.6831H64.6744ZM37.4985 72.59C43.4544 69.7481 48.6427 65.4515 52.55 60.1119C54.5523 57.376 56.1699 54.4355 57.3851 51.3495L37.4985 45.7908L17.6119 51.3495C18.8256 54.4355 20.4433 57.3745 22.447 60.1119C26.3543 65.4529 31.5426 69.7481 37.4985 72.59ZM59.8034 41.6706L37.4985 35.4353L15.1936 41.6692C15.3897 43.3652 15.6994 45.0376 16.114 46.6807L37.4985 40.7042L58.883 46.6807C59.2976 45.0376 59.6073 43.3666 59.8034 41.6706ZM35.0114 10.6954L4.97725 19.0901V37.1416C4.97725 56.7743 16.9086 74.4713 35.0099 82.2306V76.8381C28.4449 73.6432 22.7284 68.8729 18.4066 62.9685C12.8771 55.4137 9.956 46.4836 9.956 37.1416V22.7851L35.0114 15.7819V10.6954ZM14.9348 26.4816V36.6562L37.5015 30.3487L60.0682 36.6562V26.4816L37.5015 20.1742L14.9348 26.4816ZM70.0227 19.0901L39.9886 10.6954V15.7834L65.044 22.7866V37.1431C65.044 46.4851 62.1214 55.4152 56.5934 62.97C52.2716 68.8744 46.5551 73.6447 39.9901 76.8396V82.2321C58.0914 74.4728 70.0227 56.7743 70.0227 37.1431V19.0916V19.0901Z" fill="white"/>
</g>
<defs>
<clipPath id="clip0_11309_5864">
<rect width="75" height="74" fill="white"/>
</clipPath>
</defs>
</svg>
