<svg width="54" height="54" viewBox="0 0 54 54" fill="none" xmlns="http://www.w3.org/2000/svg">
<path fill-rule="evenodd" clip-rule="evenodd" d="M0.370627 27.0006C0.13829 28.9928 0.0145648 30.9961 0 33.0017C0 47.0051 7.7674 54.0045 23.3022 54C41.0555 54 51.1649 44.9994 53.6305 26.9983C53.8599 25.0066 53.9832 23.0042 54 20.9994C54.0015 7.00506 46.2349 0.00525033 30.7001 0C12.9453 0 2.83584 9.00056 0.371753 27.0017H0.370627V27.0006Z" fill="#79818F"/>
<g clip-path="url(#clip0_14182_3532)">
<path d="M39.319 38.0186C36.3226 42.1284 32.1925 45.1887 27.3758 46.8688L27 47L26.6242 46.8688C21.8075 45.1887 17.6774 42.1291 14.681 38.0186C11.6187 33.819 10 28.8558 10 23.6656V13.7698L27 9L44 13.7698V23.6656C44 28.8551 42.3813 33.819 39.3197 38.0186H39.319ZM26.9993 39.7964C29.6994 38.5032 32.0514 36.548 33.8227 34.1182C34.7304 32.8732 35.4637 31.5352 36.0146 30.1309L26.9993 27.6014L17.9841 30.1309C18.5343 31.5352 19.2676 32.8726 20.176 34.1182C21.9473 36.5487 24.2993 38.5032 26.9993 39.7964ZM37.1109 25.7265L26.9993 22.8891L16.8878 25.7259C16.9767 26.4976 17.1171 27.2587 17.305 28.0064L26.9993 25.2868L36.6936 28.0064C36.8816 27.2587 37.022 26.4983 37.1109 25.7265ZM25.8718 11.6312L12.2564 15.4513V23.6656C12.2564 32.5995 17.6652 40.6525 25.8711 44.1833V41.7295C22.895 40.2757 20.3035 38.1049 18.3443 35.4181C15.8376 31.9803 14.5134 27.9167 14.5134 23.6656V17.1327L25.8718 13.9459V11.6312ZM16.7704 18.8148V23.4447L27.0007 20.5745L37.2309 23.4447V18.8148L27.0007 15.9446L16.7704 18.8148ZM41.7436 15.4513L28.1282 11.6312V13.9465L39.4866 17.1333V23.6663C39.4866 27.9173 38.1617 31.981 35.6557 35.4188C33.6965 38.1056 31.105 40.2763 28.1289 41.7302V44.184C36.3348 40.6532 41.7436 32.5995 41.7436 23.6663V15.4519V15.4513Z" fill="white"/>
</g>
<defs>
<clipPath id="clip0_14182_3532">
<rect width="34" height="38" fill="white" transform="translate(10 9)"/>
</clipPath>
</defs>
</svg>
