<svg width="34" height="38" viewBox="0 0 34 38" fill="none" xmlns="http://www.w3.org/2000/svg">
<g clip-path="url(#clip0_11309_5907)">
<path d="M29.319 29.0186C26.3226 33.1284 22.1925 36.1887 17.3758 37.8688L17 38L16.6242 37.8688C11.8075 36.1887 7.67744 33.1291 4.68095 29.0186C1.61866 24.819 0 19.8558 0 14.6656V4.76983L17 0L34 4.76983V14.6656C34 19.8551 32.3813 24.819 29.3197 29.0186H29.319ZM16.9993 30.7964C19.6994 29.5032 22.0514 27.548 23.8227 25.1182C24.7304 23.8732 25.4637 22.5352 26.0146 21.1309L16.9993 18.6014L7.98408 21.1309C8.53426 22.5352 9.26761 23.8726 10.176 25.1182C11.9473 27.5487 14.2993 29.5032 16.9993 30.7964ZM27.1109 16.7265L16.9993 13.8891L6.88778 16.7259C6.97666 17.4976 7.11708 18.2587 7.305 19.0064L16.9993 16.2868L26.6936 19.0064C26.8816 18.2587 27.022 17.4983 27.1109 16.7265ZM15.8718 2.63124L2.25636 6.45125V14.6656C2.25636 23.5995 7.66523 31.6525 15.8711 35.1833V32.7295C12.895 31.2757 10.3035 29.1049 8.34431 26.4181C5.83762 22.9803 4.51339 18.9167 4.51339 14.6656V8.13267L15.8718 4.94587V2.63124ZM6.77042 9.81476V14.4447L17.0007 11.5745L27.2309 14.4447V9.81476L17.0007 6.94457L6.77042 9.81476ZM31.7436 6.45125L18.1282 2.63124V4.94654L29.4866 8.13334V14.6663C29.4866 18.9173 28.1617 22.981 25.6557 26.4188C23.6965 29.1056 21.105 31.2763 18.1289 32.7302V35.184C26.3348 31.6532 31.7436 23.5995 31.7436 14.6663V6.45192V6.45125Z" fill="white"/>
</g>
<defs>
<clipPath id="clip0_11309_5907">
<rect width="34" height="38" fill="white"/>
</clipPath>
</defs>
</svg>
