<svg width="35" height="35" viewBox="0 0 35 35" fill="none" xmlns="http://www.w3.org/2000/svg">
<g clip-path="url(#clip0_11317_6910)">
<path fill-rule="evenodd" clip-rule="evenodd" d="M0.707656 17.2083C0.560344 18.4731 0.481895 19.745 0.472656 21.0183C0.472656 29.9092 5.39789 34.3533 15.2484 34.3504C26.5055 34.3504 32.916 28.6361 34.4798 17.2076C34.6252 15.9431 34.7034 14.6718 34.7141 13.399C34.7141 4.51138 29.7891 0.0668583 19.9391 0.0654297C8.68099 0.0654297 2.27051 5.77972 0.707656 17.2083Z" fill="#79818F"/>
<path d="M24.8978 23.6672C23.0984 26.033 20.6184 27.7947 17.726 28.7619L17.5003 28.8374L17.2746 28.7619C14.3823 27.7947 11.9022 26.0334 10.1029 23.6672C8.26398 21.2497 7.29199 18.3925 7.29199 15.4048V9.70819L17.5003 6.9624L27.7087 9.70819V15.4048C27.7087 18.3921 26.7367 21.2497 24.8982 23.6672H24.8978ZM17.4999 24.6906C19.1213 23.9461 20.5336 22.8206 21.5973 21.4219C22.1423 20.7052 22.5827 19.935 22.9135 19.1266L17.4999 17.6704L12.0864 19.1266C12.4167 19.935 12.8571 20.7048 13.4026 21.4219C14.4662 22.821 15.8786 23.9461 17.4999 24.6906ZM23.5718 16.5912L17.4999 14.9578L11.428 16.5908C11.4814 17.0351 11.5657 17.4732 11.6786 17.9036L17.4999 16.338L23.3213 17.9036C23.4341 17.4732 23.5184 17.0354 23.5718 16.5912ZM16.8229 8.4771L8.64691 10.6761V15.4048C8.64691 20.5476 11.8949 25.1834 16.8225 27.216V25.8034C15.0353 24.9665 13.4792 23.7169 12.3027 22.1702C10.7974 20.1912 10.0022 17.8519 10.0022 15.4048V11.644L16.8229 9.80953V8.4771ZM11.3576 12.6123V15.2776L17.5007 13.6254L23.6439 15.2776V12.6123L17.5007 10.9601L11.3576 12.6123ZM26.3537 10.6761L18.1778 8.4771V9.80992L24.9984 11.6444V15.4051C24.9984 17.8523 24.2028 20.1916 22.698 22.1706C21.5215 23.7173 19.9653 24.9669 18.1782 25.8038V27.2164C23.1058 25.1838 26.3537 20.5476 26.3537 15.4051V10.6765V10.6761Z" fill="white"/>
</g>
<defs>
<clipPath id="clip0_11317_6910">
<rect width="35" height="35" fill="white"/>
</clipPath>
</defs>
</svg>
